<?xml version="1.0" encoding="UTF-8"?>
<svg width="396px" height="423px" viewBox="0 0 396 423" version="1.1" xmlns="http://www.w3.org/2000/svg" xmlns:xlink="http://www.w3.org/1999/xlink">
    <!-- Generator: Sketch 50.2 (55047) - http://www.bohemiancoding.com/sketch -->
    <title>Group 2</title>
    <desc>Created with Sketch.</desc>
    <defs>
        <filter x="-2.7%" y="-1.9%" width="105.4%" height="105.2%" filterUnits="objectBoundingBox" id="filter-1">
            <feOffset dx="0" dy="2" in="SourceAlpha" result="shadowOffsetOuter1"></feOffset>
            <feGaussianBlur stdDeviation="2" in="shadowOffsetOuter1" result="shadowBlurOuter1"></feGaussianBlur>
            <feColorMatrix values="0 0 0 0 1   0 0 0 0 1   0 0 0 0 1  0 0 0 0.5 0" type="matrix" in="shadowBlurOuter1" result="shadowMatrixOuter1"></feColorMatrix>
            <feMerge>
                <feMergeNode in="shadowMatrixOuter1"></feMergeNode>
                <feMergeNode in="SourceGraphic"></feMergeNode>
            </feMerge>
        </filter>
    </defs>
    <g id="Page-1" stroke="none" stroke-width="1" fill="none" fill-rule="evenodd">
        <g id="Group-2" style="mix-blend-mode: hue;" transform="translate(-40.000000, 3.000000)">
            <g id="Group" transform="translate(0.000000, 341.000000)"></g>
            <g id="home_titled" transform="translate(0.000000, 341.000000)"></g>
            <text id="HOME" stroke="#000000" font-family="Roboto-Regular, Roboto" font-size="144" font-weight="normal" fill="#FFFFFF">
                <tspan x="30" y="417">HOME</tspan>
            </text>
            <g id="noun_1425536_cc" filter="url(#filter-1)" transform="translate(86.000000, 0.000000)" fill="#FFFFFF" fill-rule="nonzero" stroke="#000000" stroke-width="2">
                <g id="Group">
                    <path d="M292,140 C291,150 290,160.5 289,170.5 C288.5,174.5 289,177.5 291.5,181 C300.5,194 299,212.5 287.5,222.5 C284.5,225 281,227.5 277,228 C271.5,228.5 269.5,231.5 267,236 C241,283 201,308 147.5,308 C94,307.5 54,282 28.5,235.5 C26.5,232 24.5,229.5 20,228.5 C3,224.5 -5,202.5 3.5,185.5 C5.5,181.5 6,178.5 5,174 C-9,117.5 9,69.5 56.5,35 C87,12.5 121,0.5 158.5,0.5 C203.5,0.5 237.5,21 259.5,60 C260.5,61.5 261.5,63 262.5,64.5 C282.5,82.5 289.5,106 291,131.5 C291,134.5 291,137.5 291,140.5 C291.5,140 292,140 292,140 Z M50.5,251.5 C81,287.5 120,303.5 167,297 C202.5,292.5 237.5,266 246.5,248.5 C228,258.5 213.5,257.5 200.5,254.5 C174,248 156,224 155.5,196.5 C155.5,188 153.5,186 144.5,186 C139.5,186 137,186.5 137,193.5 C138,220 126.5,239.5 102.5,251 C86,259 68.5,258 50.5,251.5 Z M128.5,196 C128.5,167.5 106,145 77.5,145 C48.5,145 27,167.5 27,198 C27,224.5 50,246.5 77,247 C105,247 128,224.5 128.5,196 Z M186,156 C164,170.5 159,203 175,225.5 C191.5,249 224.5,254 247.5,236.5 C269,220 274.5,187 258,167 C256.5,174.5 254.5,181 253,188 C250.5,179 247.5,171 245.5,162.5 C242.5,150 233.5,145.5 221.5,145 C218.5,145 215.5,145 212.5,145 C209,145 207.5,146.5 206.5,150 C203.5,160 200,169.5 196.5,179.5 C196,181 195,182 193.5,184 C193.5,173 192,164 186,156 Z M31.5,156 C42.5,145.5 54,138 68.5,136.5 C69.5,136.5 71,135 71,134 C72.5,129 73.5,123.5 75,117.5 C69.5,117.5 65.5,117.5 60,117.5 C67,104 73,92 79.5,79.5 C80,79.5 80,79.5 80.5,80 C79,89.5 77.5,98.5 75.5,108.5 C80.5,108.5 84.5,108.5 89.5,108.5 C84.5,118 80,126.5 75.5,135.5 C104.5,136.5 123.5,150 134,174 C143,174.5 150.5,175 157.5,175.5 C164.5,166 171,156.5 178.5,146.5 C172.5,140.5 164.5,134.5 155,131 C140.5,126 127,119.5 115,109.5 C102,98.5 92.5,85.5 86.5,69.5 C59.5,73.5 37,109 31.5,156 Z M210,135.5 C215.5,136 222.5,136 231.5,136.5 C220,123 209.5,110.5 199.5,98 C203,110.5 206.5,122.5 210,135.5 Z M284,181.5 C281,195.5 278,209 275,223 C284.5,220.5 289,214 291,205.5 C293,196 290.5,188 284,181.5 Z M273.5,172.5 C273.5,155 270,138.5 262,121.5 C261.5,132 260.5,141.5 260,150.5 C260,151.5 260,153 260.5,154 C264.5,160 269,166 273.5,172.5 Z M13,182 C6,190.5 4.5,199.5 7.5,209 C10,215.5 14,220.5 21.5,223 C19.5,215.5 18,209.5 16.5,203 C15,196 14,189.5 13,182 Z" id="Shape"></path>
                    <path d="M149,224.5 C151,227 153,229.5 155,232 C150,240.5 149.5,241 145.5,238.5 C147,236.5 148.5,234.5 149.5,232.5 C148.5,230 147.5,227.5 146.5,225.5 C147.5,225 148,225 149,224.5 Z" id="Shape"></path>
                    <path d="M66,192.5 C68,186.5 69,180.5 72,175.5 C76.5,167.5 84.5,167 91,174 C100,183.5 101,203 94,213.5 C89,221 81,221.5 75,214.5 C69,208.5 67.5,201 66,192.5 Z" id="Shape"></path>
                    <path d="M234,193.5 C232.5,202 231,209.5 225.5,215.5 C219,222.5 211,222 206,214 C199,203.5 200.5,184.5 208.5,175 C215,167.5 223.5,168 228,176.5 C231,182 232,188 234,193.5 Z" id="Shape"></path>
                </g>
            </g>
        </g>
    </g>
</svg>