<?xml version="1.0" encoding="UTF-8"?>
<svg width="858px" height="363px" viewBox="0 0 858 363" version="1.1" xmlns="http://www.w3.org/2000/svg" xmlns:xlink="http://www.w3.org/1999/xlink">
    <!-- Generator: Sketch 50.2 (55047) - http://www.bohemiancoding.com/sketch -->
    <title>Harry-potter-and-the-sorcerers-stone-logo</title>
    <desc>Created with Sketch.</desc>
    <defs></defs>
    <g id="Page-1" stroke="none" stroke-width="1" fill="none" fill-rule="evenodd">
        <g id="Harry-potter-and-the-sorcerers-stone-logo" transform="translate(1.000000, 0.000000)" fill="#FFFFFF" fill-rule="nonzero" stroke="#000000">
            <g id="Group" style="mix-blend-mode: hue;" transform="translate(428.000000, 181.300000) scale(-1, 1) rotate(-180.000000) translate(-428.000000, -181.300000) translate(0.000000, 0.800000)">
                <path d="M464,359.6 C458.2,359.1 446.6,358.4 438.1,358 C421,357.2 419.7,356.6 425,352 C433.6,344.7 433.7,344.6 435.4,336 C436.3,331.5 437,325.4 437,322.5 C437,319.7 437.6,312.1 438.4,305.8 C439.2,299.5 440.4,289.4 441,283.3 C441.9,273.5 441.8,272.2 440.4,271.1 C439.2,270.2 438.2,270.2 436.8,270.9 C435.8,271.4 434.5,271.6 433.9,271.2 C432.7,270.5 433.2,261.3 435.5,241.8 C436.3,234.9 437.7,222.8 438.5,214.8 C439.4,206.8 440.8,194.5 441.6,187.3 C442.5,180.2 443.1,173 442.9,171.3 C442.5,168.5 442.3,168.3 438.6,168.6 L434.7,169 L435.4,165.1 C435.8,163 436.5,157.3 437,152.3 C437.4,147.4 438.3,139.5 438.9,134.8 C439.5,130.1 440.6,120.2 441.4,112.8 C446.1,69.5 448.5,48.1 450.1,34.8 C450.6,30.1 451.4,22.1 451.9,17 C452.8,7.4 453.6,4.8 454.4,8.9 C455,12.3 457,41.2 458,62.5 C458.9,79.7 460.2,89.1 462.1,91.2 C462.6,91.8 464.2,91 466,89.3 C468.6,86.8 469.3,86.6 470.1,87.8 C470.8,88.8 471,106.3 470.8,138.7 C470.6,171 470.8,188.2 471.5,188.4 C472.1,188.6 473.4,186.9 474.5,184.5 C478.2,176.6 480.2,173.6 481.3,174.7 C481.9,175.3 481.7,187 480.6,208.3 C479.7,226.2 479.2,241.4 479.6,241.9 C480.3,243.1 485,239.1 485,237.2 C485,235 490.1,229.8 492.3,229.8 C495.2,229.8 507.6,232.5 512,234 C514,234.7 517.9,237 520.7,239.1 C526.5,243.3 527.5,243.5 530.9,240.9 C533.2,239.1 533.4,238.4 534.1,222.7 C536.1,181.6 536.6,176.1 538.9,172.9 C542,168.6 555.5,156.3 562.3,151.6 C568.9,147.1 571.4,146.9 580.6,150.5 C592.8,155.3 608.1,164.3 610,167.8 C612.3,172.1 610.7,245.8 608.1,255.6 C606.1,263 585.3,279.8 578.1,279.8 C574.6,279.8 550.2,267.5 542.7,262 C538.6,258.9 536.8,256.8 536.3,254.7 C535.5,250.6 534.4,250.3 531.4,253.3 C529.1,255.6 528.9,256.4 529.4,261.1 C529.8,263.9 530.5,277.2 531,290.4 C532.2,318.8 532.2,318.7 522.7,331.7 C519.2,336.4 513.8,344.1 510.7,348.8 C503.1,360.4 502.1,360.8 486.8,360.7 C480.1,360.6 469.8,360.1 464,359.6 Z M492.8,344.6 C493.7,343.4 495.4,316.5 496.7,282.1 L497.3,265.8 L493.9,264.4 C489.2,262.5 480.4,261.4 479.6,262.7 C479.2,263.2 478.5,281.5 477.9,303.3 C477,334.4 477,343.1 478,344.3 C479.6,346.2 491.3,346.4 492.8,344.6 Z M572.2,261.7 C571.7,258.4 565.3,250.8 562.9,250.8 C559.3,250.8 560.6,255.2 565.8,260.2 C570.8,265.1 572.7,265.6 572.2,261.7 Z M494,250.9 C494.7,249.5 494.7,248.1 494,246.2 C493,243.6 492.9,243.6 490.7,245.4 C485,250.3 484.6,252.8 489.5,252.8 C491.9,252.8 493.2,252.2 494,250.9 Z M579,238.6 C580.8,229.5 581.6,166.3 580,163.3 C579.3,162 577,160.2 574.9,159.2 C571.2,157.6 570.9,157.6 569,159.3 C563.3,164.5 563.3,164.5 562.6,203.4 C562,235.4 562.1,239.7 563.5,240.8 C564.9,241.9 573.4,244.5 576.6,244.7 C577.3,244.8 578.3,242 579,238.6 Z" id="Shape"></path>
                <path d="M319.5,337.6 C318.4,337 317.3,336.2 317,335.8 C316,334.4 295,310.7 294.1,309.8 C293.8,309.5 292.6,308.3 291.6,307 C289.7,304.8 289.7,304.7 291.6,303.4 C293.8,301.8 293.7,303.8 293.3,226.7 L293,185.1 L288.8,180.4 C284,174.8 284.7,173.4 291.9,174.3 C294.3,174.6 303.6,174.8 312.6,174.8 C322.2,174.8 329,175.2 329,175.7 C329,176.3 327.7,178.2 326,180 L323,183.2 L323,241.5 C323,289.8 323.2,299.8 324.4,299.8 C327.5,299.8 330.6,278.5 328.7,269.6 C328,266.4 328.2,265.8 329.5,265.8 C331.8,265.8 356,286.7 356,288.7 C356,290.3 353.4,298.7 350.6,306.3 C347.5,314.6 343,322.8 341.4,322.8 C339.9,322.8 335.9,321 335,319.9 C333.5,318.1 325,311.8 324.1,311.8 C323.4,311.8 323,315.9 323,324.1 C323,337.6 322.5,339.2 319.5,337.6 Z" id="Shape"></path>
                <path d="M640.3,329.1 C637.5,325.9 627.6,315.5 618.1,305.9 C608.7,296.3 601,288.2 601,287.8 C601,287.4 604.4,286.8 608.6,286.6 C612.7,286.3 616.5,285.7 617,285.2 C617.4,284.7 618.3,253.3 619,215.3 L620.2,146.3 L622.8,144.3 C628.3,140 654.3,124.8 656.2,124.8 C657.2,124.8 658.3,125.5 658.7,126.5 C659.2,127.6 657.6,129.7 653.3,133.7 C650,136.8 647,140.4 646.7,141.6 C646,144.5 647.7,265 648.6,277.1 C649.3,287.3 650.3,288.8 656.4,288.8 C661.4,288.8 663,290.1 663,294.2 C663,299.2 661.7,300.3 654.8,300.8 L648.5,301.3 L648.3,315.8 C648,330.8 647.6,334.8 646.1,334.8 C645.7,334.8 643,332.2 640.3,329.1 Z" id="Shape"></path>
                <path d="M112.8,332.4 C104.2,331.8 96.8,331 96.4,330.5 C96,330.1 96.8,328.5 98.2,327 C104.4,320.3 104,323.9 104,270.2 L104,221.1 L101.3,219 C99.7,217.9 96.7,215.5 94.5,213.8 C86.1,207.4 75.7,200.8 73.9,200.8 C72.8,200.8 71.8,201.7 71.5,203.1 C71.1,204.4 71,227.9 71.2,255.4 C71.5,308.3 71.4,307.2 76.3,312.5 C77.4,313.8 78.2,315 77.9,315.2 C77.2,316 29.1,316.2 28.3,315.5 C27.9,315.1 29.3,313.1 31.3,311 L35,307.2 L35,251.6 C35,220.8 34.6,195.7 34.1,195.4 C33.2,194.8 23.5,201.8 16.1,208.5 C12.2,211.9 11.8,212.6 12.8,214.5 C13.5,215.7 15.8,218 18,219.8 C22.7,223.5 23.1,225.2 19.3,224.4 C17.7,224.1 13.7,223.6 10.2,223.2 C3.4,222.5 0,220.2 0,216.4 C0,213.7 3.8,207.1 8.7,201.2 C12.4,196.6 25.6,185.8 31.8,182.2 L35,180.4 L35.3,155.8 C35.4,142.3 35.5,126 35.5,119.5 L35.5,107.6 L30.2,103 C27.2,100.4 25.2,97.9 25.6,97.5 C26,97.1 28.5,96.8 31.1,96.8 C33.8,96.8 40.8,96.2 46.7,95.4 C61,93.5 78.7,92.5 79.4,93.6 C79.7,94.1 77.9,96.6 75.6,99.2 L71.2,103.9 L71.1,142.3 L70.9,180.6 L73.2,182.2 C74.4,183.1 76.7,183.8 78.2,183.8 C79.8,183.8 81.8,184.2 82.8,184.7 C83.7,185.2 86.8,186.7 89.5,187.9 C92.3,189.1 96.2,191.5 98.3,193.1 C100.7,195 102.5,195.7 103.1,195.1 C103.7,194.5 103.9,176.1 103.7,147.2 C103.4,95.2 103.7,97.5 96.5,87.9 C94.3,84.9 92.1,81.9 91.5,81.2 C91,80.5 90.9,79.6 91.3,79.1 C92.1,78.3 150,75.8 151.3,76.5 C152.7,77.3 152,78.8 147.6,84.5 C139.4,95.5 140,89.3 140,159.1 L140,221.4 L143.2,223.9 C148.5,227.9 150.3,228.7 153.8,228.8 C157.7,228.8 157.8,227.9 154.4,224.7 C149.6,220.3 146,214.6 146,211.4 C146,209.7 146.6,205.2 147.4,201.3 C148.3,197.5 149.6,190.7 150.5,186.3 C152.4,177.2 155,165.1 155.7,162.6 C155.9,161.6 157.7,159.3 159.5,157.3 C162.7,154 163.2,153.9 167.7,154.4 C170.3,154.8 174.9,156.3 177.7,157.9 C184.5,161.6 186.2,161.6 189.1,157.3 C193.9,150.3 202.1,151.6 209.7,160.6 C212.3,163.7 217.2,169.2 220.4,172.7 C226.2,179 226.3,179.1 224,180.3 C220,182.4 218.7,187.3 218,202.8 C215.3,257.3 214.9,263.3 213.2,266.8 C211.1,271.2 207,276.7 200.1,284.3 C197.2,287.6 192.9,292.5 190.7,295.3 C183.4,304.6 180.5,304.8 165.6,297.3 C146.4,287.7 143.9,283 150.5,269.7 C156.5,257.6 159.9,252.9 162.7,252.8 C163.8,252.8 167.1,257.8 167,259.3 C166.9,263.5 167.6,264.9 173.6,270.5 C177.8,274.5 180.9,276.8 182.4,276.8 C186.7,276.8 187.1,272.1 187.7,221.8 C188.2,179.8 188.1,175.1 186.6,173.9 C185.4,172.9 184.6,172.8 183.7,173.7 C180.9,176 176.4,218.1 178.3,224.8 C178.8,226.7 180.6,230 182.3,232.1 C184.7,235.3 185.1,236.2 183.9,236.9 C183.1,237.4 173.1,237.8 161.5,237.7 L140.5,237.6 L139.8,263.4 C139.4,277.7 139.3,296.3 139.7,304.8 L140.3,320.3 L144.7,326.1 C147.1,329.3 148.8,332.3 148.5,332.8 C147.7,334 133.6,333.8 112.8,332.4 Z" id="Shape"></path>
                <path d="M247.7,322.1 C245.8,320.5 240.5,316.4 236,312.8 C231.5,309.2 225.1,304.1 221.7,301.5 C218.3,298.8 215.5,296.1 215.5,295.5 C215.5,294.8 217.6,294.2 220.6,294 C230.1,293.5 229.4,298 229.8,231.2 L230.2,172.8 L227.1,169.3 C225.4,167.3 224,165.3 224,164.7 C224,164 227,163.8 233.3,164.2 C238.3,164.5 248.2,165 255.3,165.4 C262.3,165.7 268.2,166.4 268.5,166.8 C268.8,167.2 267.8,168.3 266.4,169.3 C261.7,172.4 261.1,175.6 260,206.4 C259.4,222.3 258.5,240 258,245.8 C256.6,262 256.7,283.1 258.3,282.6 C258.9,282.3 259.8,279.9 260.1,277.2 C260.5,274.5 261.2,270.5 261.9,268.3 C262.5,266.1 263,261.3 263,257.6 C263,253.2 263.4,250.8 264.1,250.8 C264.7,250.8 268.7,253.3 272.9,256.3 C277.1,259.4 282.4,263.2 284.8,264.8 C289.6,268.2 289.8,269.5 287.6,279.8 C285.8,287.7 284.2,292.3 279.6,302.1 C274.9,312.2 272.3,312.9 263.7,306.7 C261.5,305.1 258.7,303.8 257.5,303.8 C255.4,303.8 255.2,304.4 254.4,314 C253.9,319.6 253,324.3 252.4,324.5 C251.8,324.7 249.7,323.6 247.7,322.1 Z" id="Shape"></path>
                <path d="M689.6,322.6 C688.8,321.3 684.9,314.9 681,308.4 C673.4,295.7 667.1,287 660.6,280 C653.6,272.6 653.3,269.8 659.4,269.8 C666.1,269.8 665.8,272.3 667,201.3 C667.8,157.3 668.4,137 669.2,136 C669.8,135.3 672.8,133.6 675.9,132.2 C679,130.7 684.2,128.4 687.5,126.8 C704.6,118.9 707.8,117.5 711,116 C712.9,115.2 715.7,113.9 717.2,113.1 C723.4,110 726.5,111.8 733.7,122.7 C735.7,125.8 738.6,129.5 740.2,131 C741.7,132.5 743,134.1 743,134.6 C743,135.1 737.7,135.8 731.3,136.1 C724.8,136.5 716.2,137.1 712.3,137.4 C707.7,137.8 705,137.7 705,137.1 C705,135.8 714.3,132.8 718.4,132.8 C723.4,132.8 724.5,131.6 722.7,128.2 C721.9,126.6 720.3,124.5 719.2,123.5 C717.2,121.7 717,121.7 710.5,124.9 C706.9,126.7 702.6,129.4 701,130.8 L698.2,133.3 L697.5,199.9 C696.9,258.8 697,266.6 698.3,268 C699.2,268.8 702.6,269.8 706,270.1 C709.4,270.5 712.6,271 713.1,271.4 C714.6,272.3 714.1,278.5 712.4,280.2 C711.3,281.3 709,281.8 704.6,281.8 C700.7,281.8 697.8,282.3 697.2,283.1 C696.7,283.7 695.9,293.4 695.5,304.6 C694.8,323.4 694.6,324.8 692.9,324.8 C691.9,324.8 690.4,323.8 689.6,322.6 Z" id="Shape"></path>
                <path d="M798.7,286.7 C789.5,277.3 782.2,269.2 782.6,268.7 C782.9,268.2 784,267.8 785,267.8 C786.1,267.8 787.5,266.8 788.1,265.6 C789.7,262.6 790.8,234.3 790.9,193.1 L791,161 L787.7,156.6 C785.9,154.3 783.3,151.8 782,151.1 C776.1,148.1 779.5,146.7 800.5,143.2 C806,142.3 813.6,141 817.4,140.2 C821.2,139.4 825.4,138.8 826.8,138.8 C828.2,138.8 832.3,138.1 835.8,137.2 C840.1,136.1 842.5,135.9 843.2,136.6 C844.2,137.6 843.9,137.8 834.8,142.5 C832.4,143.8 828.9,146.3 827.1,148.1 C824,151.4 823.8,152 822.9,162.9 C822.4,169.2 821.7,195.8 821.3,222.2 C820.9,260 821,270 822,269.6 C822.7,269.4 823.8,267.7 824.5,265.8 C825.1,263.9 826.7,259.5 827.9,256.1 L830.1,250 L827.1,244.5 C825.4,241.6 824.3,238.8 824.7,238.5 C825,238.1 826.7,237.8 828.4,237.8 C831.5,237.9 833,239 851.3,255.8 C855.3,259.5 856.8,264.5 855.1,268.3 C851.8,275.6 844.1,290.8 842.6,293.1 C840.2,296.7 838,296.5 829.2,292.2 C824.8,290 821.5,288.9 820.9,289.5 C820.4,290 819.4,293.2 818.7,296.8 C818,300.3 817,303.3 816.4,303.5 C815.8,303.7 807.9,296.1 798.7,286.7 Z" id="Shape"></path>
                <path d="M742,289.1 C737.5,287.3 715,266.5 712.5,261.7 C711.4,259.7 710.9,250.4 710.4,222 L709.7,184.9 L714.6,179.1 C721.1,171.3 726.7,165.1 731.3,160.6 L735.1,156.8 L745.4,156.8 C757.3,156.8 756.5,156.3 766.5,170.3 C775,182.2 774.9,181.5 770.1,189.4 C764,199.5 762.3,201.5 761,200.1 C759.8,199 757,189.8 755,180.8 C752.8,171 751.2,166.3 750.1,166.4 C749.5,166.5 748.6,166.6 748.2,166.7 C747.7,166.7 745.8,168.9 743.9,171.6 L740.5,176.3 L739.4,203.3 C738.5,226.8 738.6,230.5 739.8,231.5 C741.6,233 742.5,232.8 762.8,227.2 C771.1,224.9 773.4,225.8 778.5,233.2 C782.2,238.5 782.5,239.5 782.3,245.2 C782.2,248.5 781.6,252.7 781,254.3 C780.3,256 779.4,258.9 779,260.8 C776.2,272.7 772.9,276.6 759.4,283.5 C749.3,288.6 744.7,290.1 742,289.1 Z M746.8,272.6 C747.8,270.2 749.5,266.3 750.4,263.8 C751.4,261.3 752.8,258 753.5,256.3 C757.3,247.4 759,242.7 759,240.7 C759,238.7 758.6,238.6 755,239.2 C752.8,239.5 749.1,240.1 746.8,240.4 C744.4,240.8 741.9,241.5 741.3,242.1 C739.5,243.4 739.5,273.9 741.2,275.6 C743.3,277.7 744.8,276.9 746.8,272.6 Z" id="Shape"></path>
                <path d="M388.5,263.9 C388.2,263.3 388.9,262.4 390,261.8 C392.4,260.5 392.7,255 390.6,251 C389.8,249.5 388.5,246.3 387.5,243.8 C386.6,241.3 385.2,238 384.5,236.3 C383.8,234.7 382.6,231.5 381.7,229.3 C375.6,213.3 372.9,208.3 371.8,210.5 C371.3,211.4 368.6,221.2 366.4,230.3 C365.5,233.6 364.2,238.3 363.4,240.8 C361.6,246.6 361.6,248.5 363.7,249.6 C366.2,251 364.6,254.2 361.7,253.4 C360.5,253.1 352.6,252.8 344.3,252.8 C328.6,252.8 327.3,252.5 330.3,248.9 C331.6,247.4 333.4,240.1 336.5,224.3 C338.5,214.1 341,202.2 342.5,195.3 C343.2,192 344.6,184.9 345.6,179.6 C347.5,169 347.7,170.1 342,157.3 C331.5,133.9 325.3,121.3 323.2,119.5 C321.2,117.7 320.5,117.7 305.3,119.2 C296.6,120 283.1,121.2 275.3,121.8 C267.5,122.3 260.4,123.1 259.6,123.4 C257.7,124.1 257.6,126.1 259.3,130.8 C261.5,136.9 264.1,139.7 270.5,142.9 C275.9,145.5 278.9,148.2 277.7,149.4 C276.9,150.3 250.5,151.6 248.5,150.8 C243.8,149 232.1,127.4 233.9,124 C235.8,120.5 238.9,118.3 248.9,113.3 C270,102.8 284,99 310,96.7 C315.8,96.2 323.5,95.5 327.2,95.1 C334.4,94.5 336.3,95.2 338.1,99.3 C338.6,100.4 340.5,104 342.3,107.3 C344.2,110.6 348.3,118.3 351.5,124.3 C354.7,130.4 358.2,136.9 359.3,138.8 C360.4,140.7 363.8,147 366.8,152.8 C369.9,158.6 374.5,167.4 377.1,172.3 C382.3,182 394.3,206.2 396.6,211.5 C397.4,213.3 398.7,216.3 399.6,218.3 C400.4,220.2 401.8,223.5 402.7,225.5 C405,230.9 406.4,234.2 410,243.3 C411.8,247.7 413.8,252.4 414.5,253.8 C415.2,255.2 416.1,257.7 416.4,259.5 C417,262.1 416.7,262.9 415.1,263.7 C412.7,265.1 389.3,265.2 388.5,263.9 Z" id="Shape"></path>
                <path d="M541.3,124.6 C539.2,123.6 539,122.8 539,115.8 C539,109.5 539.3,107.8 540.9,106.4 C543.3,104.2 548.7,104.9 554.5,108.1 C557.9,110 558.5,110.9 558.8,114.1 C559.1,117.4 558.6,118.4 555.2,121.9 C551.9,125.1 550.6,125.8 547.4,125.7 C545.2,125.7 542.5,125.2 541.3,124.6 Z M551.9,118.5 C553.1,117.2 553.8,115.4 553.5,114.6 C552.8,112.8 546.2,109.5 544.9,110.3 C543.9,111 543.7,119.1 544.7,120.1 C546.1,121.6 549.7,120.7 551.9,118.5 Z" id="Shape"></path>
                <path d="M494.7,124.1 C494.3,123.8 494,122.6 494,121.6 C494,120.5 493.4,118.5 492.6,117 C490.7,113.2 489.9,108.5 490.9,106.9 C492.1,105.1 495.6,106.3 496.3,108.8 C497.2,112.2 500.9,111.3 502.5,107.4 C504.1,103.7 507.7,101.7 509,103.8 C509.8,105.1 509,109.1 507.2,112.4 C506.6,113.4 505.4,116.4 504.5,119 C503.3,122.1 502.1,123.8 500.6,124.2 C497.8,125 495.5,124.9 494.7,124.1 Z M500,116.2 C500,114.6 498.4,114.3 497.5,115.8 C496.7,117.1 497.9,119 499.1,118.3 C499.6,117.9 500,117 500,116.2 Z" id="Shape"></path>
                <path d="M512.2,115.6 C512.5,107.9 512.7,107.3 514.7,107 C516.8,106.7 516.9,106.9 516.3,111.7 C515.9,114.9 516.1,116.8 516.7,116.8 C517.3,116.8 520.8,113.7 524.5,109.8 C528.3,106 531.7,103.1 532.2,103.4 C532.6,103.7 533,107.7 533,112.4 C533,119.9 532.8,120.8 531.2,120.8 C528.6,120.8 527.9,119.8 529,117.9 C529.5,116.9 529.5,115.6 529,114.8 C528.4,113.8 526.9,114.8 522.8,118.7 C519,122.2 516.5,123.8 514.6,123.8 L511.9,123.8 L512.2,115.6 Z" id="Shape"></path>
                <path d="M605.8,106.1 C603,105.4 603.7,103 607,102.3 C609.3,101.8 610,101.1 610,99.3 C610,96.8 608.3,95.8 604,95.8 C601.3,95.8 599.3,97.6 599.1,100.3 C599.1,100.9 597.6,101.4 595.8,101.6 L592.5,101.9 L592.8,93.6 C593.2,83.1 593.3,82.8 597,82.8 C600,82.8 600.1,83 599.8,86.6 L599.5,90.3 L603.9,90.6 C610.7,91.1 611.6,90.4 609.1,86.5 C606.6,82.5 607.1,81.8 612.2,81.8 C616.5,81.8 618.1,83.8 616.2,86.9 C614.7,89.3 614.6,101 616.1,102.5 C618.4,104.8 616.3,106.8 611.8,106.7 C609.4,106.6 606.7,106.4 605.8,106.1 Z" id="Shape"></path>
                <path d="M637.5,104.9 C637.2,104.3 634,103.8 630.4,103.8 C626.8,103.8 623,103.3 621.9,102.7 C620,101.7 619.9,101.5 621.5,99.8 C622.8,98.3 623.1,96.4 622.9,90.6 C622.7,86.6 622.9,82.7 623.3,82.1 C624.1,80.9 631.5,80.5 635.3,81.5 C638.3,82.3 637.2,84.7 633.5,85.4 C629.2,86.2 628.6,89.3 632.6,90.8 C635.6,92 635.3,94.2 632.1,94.6 C630.7,94.8 630,95.5 630.2,96.6 C630.6,98.9 635.7,99.4 637.9,97.3 C639.5,96 639.9,95.9 640.9,97.2 C642.7,99.3 641.9,105.2 639.8,105.6 C638.9,105.8 637.9,105.4 637.5,104.9 Z" id="Shape"></path>
                <path d="M583.7,103.4 C582,102 567,102 562.7,103.4 C561.2,103.9 561,103.6 561.6,101.1 C562.6,97.1 563.2,96.7 566.8,98 C569.6,99.1 570.2,99 571,97.8 C572.2,95.9 572.3,89.2 571.1,86.9 C569.8,84.6 571,82.9 574.5,82.3 C578.8,81.5 580.3,82.8 579,86.2 C577.5,90.3 577.7,97.3 579.5,98.8 C580.8,99.8 581.4,99.8 582.8,98.4 C586.3,95.3 588.8,97.6 587,102.3 C585.9,105.2 586,105.1 583.7,103.4 Z" id="Shape"></path>
                <path d="M826.7,81.1 C825.3,79.7 826.1,76.3 828.7,72.6 C830.6,69.8 831.6,69.1 832.1,70 C833.1,71.5 833.3,77.9 832.4,80.2 C831.8,81.8 827.9,82.4 826.7,81.1 Z" id="Shape"></path>
                <path d="M573.7,75.2 C573.3,74.8 573.9,73.3 575,71.8 C576.7,69.4 577,67.3 577,58 C577,47.8 576.9,46.9 574.8,45.6 C572.8,44.3 572.7,43.8 573.9,42.5 C575.5,40.5 581,39.3 583.9,40.3 C586.3,41 586.7,44 584.5,45.8 C582.3,47.6 582.4,67.4 584.6,70.6 C587.2,74.3 585.8,75.8 579.7,75.8 C576.7,75.8 574,75.5 573.7,75.2 Z" id="Shape"></path>
                <path d="M779.1,75.1 L770.8,74.7 L771.6,72 C772,70.5 772.4,62.8 772.5,54.8 L772.5,40.3 L779,40.3 L785.5,40.3 L785.3,43.6 C785.2,47.7 784.5,48.5 782.5,46.8 C780.9,45.4 778,46.1 778,47.9 C778,48.5 779.4,50.2 781,51.6 C785,55.1 785.2,59.9 781.4,61.6 C779.3,62.6 778.9,63.4 779.2,66.1 C779.5,69.1 779.8,69.3 783.7,69.6 C787.2,69.9 787.9,69.6 788.5,67.8 C789.6,64.4 791.2,67 790.8,71.4 C790.5,75.8 791.1,75.6 779.1,75.1 Z" id="Shape"></path>
                <path d="M795.4,74.6 C795.1,74.2 795.4,73 796,71.9 C797.3,69.3 797.3,46.5 795.9,45.1 C794.2,43.4 797.7,40.8 801.6,40.8 C804.5,40.8 805,41.1 805,43.1 C805,44.4 804.6,45.8 804.1,46.3 C803.5,46.9 803.4,52.1 803.8,58.8 C804.4,68.7 804.7,70.3 806.3,70.6 C808.7,71.1 812.8,68.3 814.2,65.3 C815.1,63.4 814.8,62.3 813,59.3 C811.8,57.3 809.7,55.2 808.4,54.8 C805.7,53.7 805.2,50.7 807.5,48.8 C808.3,48.1 809,46.7 809,45.7 C809,42.8 811.8,40.8 816.1,40.8 C820.9,40.8 821.2,42.4 817,46.1 C813.3,49.4 813.3,50.8 816.5,53.8 C817.9,55.1 819.5,57.9 820.2,60 C821.1,63.2 821,64.4 819.5,67.8 C816.8,73.8 814,75.2 804.2,75.2 C799.6,75.3 795.6,75 795.4,74.6 Z" id="Shape"></path>
                <path d="M542.4,73.3 C542,72.5 542,71.1 542.3,70.3 C542.9,68.9 543.2,49.6 542.7,44.9 C542.4,41.6 547,38.7 549.4,40.7 C550.5,41.6 550.7,42.6 549.9,44.4 C549.4,45.8 549,48.7 549,50.8 C549,55.4 551.2,57.1 556.3,56.6 C559.5,56.3 559.5,56.3 559.3,50.8 C559.3,47.8 559,44.2 558.8,42.8 C558.5,40.5 558.8,40.3 562,40.3 C565.1,40.3 565.5,40.6 565.2,42.8 C563.1,60.7 562.9,64.7 564.3,68.1 C566,72.1 565.5,73.4 561.7,74.3 C558.4,75.2 557.1,72.8 559,69.4 C561,65.6 560,62.4 556.6,62 C551.6,61.4 549,62.6 549,65.3 C549,66.7 549.5,68.7 550.2,69.7 C551.1,71.2 551.1,72 550.1,73.2 C548.4,75.2 543.1,75.3 542.4,73.3 Z" id="Shape"></path>
                <path d="M594,74 C594.1,73.6 594.7,72.2 595.5,70.8 C597.6,67.2 597.6,47.5 595.5,45.8 C591.7,42.6 595.2,39.8 602.8,39.8 C606.3,39.8 608,39.4 608.4,38.3 C609.4,35.5 610.9,36.8 611.5,41.2 C612.5,47.9 610.2,53 608.5,47.8 C608.2,46.7 607,45.8 605.9,45.8 C604.1,45.8 604,46.6 604,56.8 C604,62.9 604.5,68.8 605.2,70.3 C605.8,71.7 606.1,73.1 605.8,73.4 C604.9,74.2 594,74.7 594,74 Z" id="Shape"></path>
                <path d="M625.7,73.3 C617.8,70.4 613.8,61.9 616,52.6 C616.7,49.7 618.2,46.2 619.4,44.9 C626.4,37 638.7,39.2 644.4,49.3 C647.5,55 647.8,60.4 645.1,65.6 C642.6,70.5 640.4,72.4 635.5,73.7 C630.7,75 630.5,75 625.7,73.3 Z M637.9,66.1 C645.4,60.4 640.7,45.8 631.3,45.8 C626.2,45.8 620.5,49.7 619.7,53.7 C618.4,59.9 620.9,65.9 625.5,67.9 C628.5,69.2 635,68.2 637.9,66.1 Z" id="Shape"></path>
                <path d="M657.3,73.7 C654,72.9 652.9,72 651.5,69.2 C650.6,67.2 650.1,64.6 650.4,63.4 C651.3,59.8 654.9,55.9 658.6,54.3 C661.4,53.2 662,52.4 662,49.9 C662,47.7 661.3,46.4 659.4,45.1 C656.7,43.4 656.7,43.4 654,46.6 C652.6,48.4 651,49.8 650.7,49.8 C650.3,49.8 650,48 650,45.8 C650,42.4 650.4,41.6 652.6,40.8 C654,40.2 657,39.8 659.4,39.8 C665.3,39.8 668,42.7 668,49.2 C668,55.5 665.3,59.9 660,62.3 C656.9,63.7 656,64.7 656.2,66.1 C656.7,69.5 659.5,70.5 662,68.3 C663.8,66.7 664.3,66.6 665,67.8 C666.2,69.7 666.2,70.5 665,72.9 C663.8,75 663.4,75 657.3,73.7 Z" id="Shape"></path>
                <path d="M682,73.6 C668.5,69.9 666.9,47.3 679.7,41.6 C687.7,38.1 696.1,41.2 700,49.3 C707,63.7 696.7,77.5 682,73.6 Z M690.1,67.7 C696.7,65.5 699.3,59.4 696.3,53.1 C694,48.1 691.2,45.9 687.2,45.8 C680.3,45.8 675,50.6 675,57 C675,62.2 676.9,65.9 680.5,67.4 C684.3,69 685.8,69.1 690.1,67.7 Z" id="Shape"></path>
                <path d="M740.7,74.1 C739.3,73.7 739,73 739.4,71.5 C739.7,70.3 740,63.1 740,55.6 C740,42.8 740.1,41.8 742,40.8 C745.1,39.1 748.3,40.5 747.5,43.1 C744.7,52.4 746.3,56.8 752.5,56.8 C757.9,56.8 759.7,51 756.4,44.6 C754.6,41.1 755.5,39.8 760.1,39.8 C763.7,39.8 764.1,40.6 762.5,43.9 C760.7,47.2 760.4,68.3 762,69.3 C765,71.2 760.7,75.5 757,74.3 C754.9,73.6 754.3,70.4 756,69.3 C756.6,69 757,67.1 757,65.2 C757,61.8 756.9,61.8 752.6,61.8 C746.8,61.8 745.2,63.6 746.9,68.5 C747.6,70.4 747.8,72.4 747.4,72.8 C746.1,74 742.7,74.6 740.7,74.1 Z" id="Shape"></path>
                <path d="M840.1,73.4 C836.1,72 834.6,68.5 835.4,62.9 C836,59.1 839.5,54.8 842.1,54.8 C843,54.8 844.5,53.7 845.4,52.3 C847.3,49.4 846.4,46.6 842.9,44.7 C841.2,43.8 840.4,44 838.4,45.9 C837.1,47.1 836,48.8 836,49.6 C836,50.3 835.4,50.8 834.8,50.6 C834,50.3 833.5,48.5 833.5,46.2 C833.5,41.5 836.1,39.8 843.2,39.8 C850.3,39.8 852.8,43.4 851.7,52.4 C851.2,57.6 849.4,59.9 844,62.3 C839.8,64.2 838.9,66.6 841.5,68.8 C842.8,69.9 843.6,69.8 845.8,68.7 C847.3,68 848.8,67.2 849.3,67 C849.7,66.8 850,68 850,69.7 C850,74.5 846.6,75.8 840.1,73.4 Z" id="Shape"></path>
                <path d="M509.4,72.6 C509.1,72.1 509.5,70.9 510.4,69.9 C512.7,67.3 512.7,48.2 510.4,45.7 C509.5,44.7 509,43.2 509.3,42.4 C510.1,40.4 516.3,39.3 518.9,40.7 C520.9,41.8 520.9,42.1 519.5,44.8 C518.5,46.7 518,50.6 518,56.5 C518,68.9 518.4,69.8 523,69.8 C532.3,69.8 534,56.3 525,54.3 C521.2,53.5 520.9,50.3 524.5,49.4 C528.1,48.5 533.7,51.4 535.7,55.1 C538.2,60 537,67.5 533.2,70.9 C530.3,73.5 529.6,73.6 520.1,73.6 C514.5,73.6 509.7,73.2 509.4,72.6 Z" id="Shape"></path>
                <path d="M706.6,72.9 C706.3,72.5 706.7,71.2 707.5,70.2 C709.6,67.4 709.6,47.5 707.5,45.8 C705.1,43.8 705.8,42 709.4,40.8 C715.4,38.8 720.5,41.9 717,45.4 C716.3,46.1 716,51 716.2,57.9 L716.5,69.3 L719.7,69.6 C721.5,69.8 724,69.2 725.4,68.2 C727.5,66.9 728,65.8 728,62.3 C728,57.8 726.7,56.1 721.8,54 C718.6,52.7 718.3,51.6 720.5,49.8 C722.5,48.2 728.9,49.9 731.4,52.7 C735.6,57.3 735.3,65.9 731,70.7 C728.1,73.8 728.1,73.8 717.6,73.8 C711.8,73.8 706.9,73.4 706.6,72.9 Z" id="Shape"></path>
                <path d="M670,35.2 C668.6,34.5 665.6,33.8 663.4,33.8 C655.2,33.8 650.9,26.9 654.9,20.4 C657.1,16.9 658.8,15.8 661.9,15.8 C662.9,15.8 664.9,14.8 666.4,13.7 C669.7,11.1 669.5,7.9 665.8,5.9 C661.3,3.3 657.6,5.4 654.6,12.3 C653.7,14.2 652,10.3 652,6.3 C652,1.2 653.2,-0.7 655.6,0.3 C656.7,0.7 660.3,0.9 663.8,0.8 C671.5,0.6 674.5,2.3 676.1,7.7 C677.1,11.2 677,12 674.5,16.7 C672.3,20.6 671.1,21.8 669.3,21.8 C668,21.8 665.3,22.5 663.4,23.3 C659.2,25 659.1,27.8 663.2,29.2 C666.7,30.4 670.6,28.5 671.9,24.9 C672.7,22.8 672.9,23.7 672.9,29.6 C673,33.5 672.9,36.8 672.8,36.7 C672.6,36.6 671.4,36 670,35.2 Z" id="Shape"></path>
                <path d="M789,26.4 C786.4,25.4 785.6,24.6 785.9,23.2 C786.2,22.1 786.4,17.1 786.4,12 C786.5,1.2 786.8,0.8 794.8,0.8 C800,0.8 800.1,0.9 799.8,3.6 C799.6,5.8 799,6.4 796.3,6.6 C792.6,7 791.9,8.7 795,9.5 C796.3,9.8 797,10.9 797,12.4 C797,13.7 796.1,15.3 795,16 C792.8,17.4 792.4,20.3 794.2,21.4 C796.1,22.6 801.2,21.9 803,20.3 C803.9,19.5 805,19.1 805.3,19.5 C806.6,20.7 806,24.6 804.4,26.2 C802.5,28.2 794.1,28.2 789,26.4 Z" id="Shape"></path>
                <path d="M719.9,25 C718.5,24.6 715.6,22.9 713.6,21.1 C710.7,18.4 710,17.2 710,14.1 C710,9.8 712.7,5.1 716.2,3.2 C717.5,2.4 721.2,1.9 724.6,1.8 C732.2,1.8 738.3,4.7 741.3,9.9 C743.4,13.5 743.4,13.7 741.6,17.4 C740.7,19.6 738.8,22.1 737.5,23.1 C734.8,25 724.3,26.2 719.9,25 Z M733,19 C737.3,16.9 738,13.4 735,9.5 C733,7 732.2,6.8 726.1,6.8 C718,6.8 714,9.1 714,13.8 C714,20.1 724.8,23.1 733,19 Z" id="Shape"></path>
                <path d="M748.7,14.6 C748.8,8.4 748.9,3 748.9,2.6 C749,2.1 750.4,1.8 752.1,1.8 C754.9,1.8 755.2,2 754.5,4.1 C753.3,7.9 752.4,16.8 753.1,17.9 C753.5,18.5 757.2,15.8 762.5,11.1 C767.3,6.8 771.9,3.3 772.8,3.3 C774.2,3.3 774.6,4.8 775,11.9 C775.3,16.6 776.1,21.2 776.7,22 C778.5,24.1 776.5,25.8 772.4,25.8 C768.8,25.8 767.3,24.4 768.8,22.5 C770.2,20.6 771,15.4 770,13.8 C769.3,12.7 767.6,13.8 762.2,19.1 C756.4,24.6 754.6,25.8 751.8,25.8 L748.5,25.8 L748.7,14.6 Z" id="Shape"></path>
                <path d="M680.4,23.6 C680.1,23.1 680.2,21.9 680.5,20.8 C681.2,18.6 683.1,18.3 686,19.8 C689.3,21.6 690.8,20 691.2,14.5 C691.5,11 691.2,8.5 690.2,6.9 C688.8,4.6 688.9,4.3 691,2.6 C693.3,0.7 694.8,0.4 697.3,1.4 C698.5,1.8 698.6,3.6 698.2,10.8 C697.8,18.6 697.9,19.8 699.4,20.4 C700.5,20.8 702,20.2 703.5,18.8 C705.6,16.8 706,16.7 706.6,18.1 C706.9,18.9 707,20.7 706.8,21.9 C706.5,24.1 706.2,24.2 693.7,24.3 C686.6,24.3 680.6,24 680.4,23.6 Z" id="Shape"></path>
            </g>
        </g>
    </g>
</svg>